<svg viewBox="0 0 1400 900" xmlns="http://www.w3.org/2000/svg">
  <defs>
    <linearGradient id="bgGradient" x1="0%" y1="0%" x2="100%" y2="100%">
      <stop offset="0%" style="stop-color:#0c0a09;stop-opacity:1" />
      <stop offset="50%" style="stop-color:#1c1917;stop-opacity:1" />
      <stop offset="100%" style="stop-color:#292524;stop-opacity:1" />
    </linearGradient>
    <linearGradient id="cardGradient" x1="0%" y1="0%" x2="100%" y2="100%">
      <stop offset="0%" style="stop-color:#ffffff;stop-opacity:1" />
      <stop offset="100%" style="stop-color:#f8fafc;stop-opacity:1" />
    </linearGradient>
    <linearGradient id="codeGradient" x1="0%" y1="0%" x2="100%" y2="100%">
      <stop offset="0%" style="stop-color:#8b5cf6;stop-opacity:1" />
      <stop offset="50%" style="stop-color:#7c3aed;stop-opacity:1" />
      <stop offset="100%" style="stop-color:#6d28d9;stop-opacity:1" />
    </linearGradient>
    <linearGradient id="terminalGradient" x1="0%" y1="0%" x2="100%" y2="100%">
      <stop offset="0%" style="stop-color:#1f2937;stop-opacity:1" />
      <stop offset="100%" style="stop-color:#111827;stop-opacity:1" />
    </linearGradient>
    <linearGradient id="greenGlow" x1="0%" y1="0%" x2="100%" y2="100%">
      <stop offset="0%" style="stop-color:#10b981;stop-opacity:0.8" />
      <stop offset="100%" style="stop-color:#059669;stop-opacity:0.4" />
    </linearGradient>
    <filter id="glow">
      <feGaussianBlur stdDeviation="4" result="coloredBlur"/>
      <feMerge> 
        <feMergeNode in="coloredBlur"/>
        <feMergeNode in="SourceGraphic"/>
      </feMerge>
    </filter>
    <filter id="bigShadow">
      <feDropShadow dx="0" dy="12" stdDeviation="24" flood-color="#000000" flood-opacity="0.3"/>
    </filter>
    <filter id="textGlow">
      <feGaussianBlur stdDeviation="2" result="coloredBlur"/>
      <feMerge> 
        <feMergeNode in="coloredBlur"/>
        <feMergeNode in="SourceGraphic"/>
      </feMerge>
    </filter>
  </defs>
  
  <!-- Background -->
  <rect width="1400" height="900" fill="url(#bgGradient)"/>
  
  <!-- Matrix-style particles -->
  <g opacity="0.3">
    <text x="100" y="100" font-family="monospace" font-size="12" fill="#10b981" opacity="0.6">010110</text>
    <text x="1200" y="150" font-family="monospace" font-size="10" fill="#8b5cf6" opacity="0.4">terraform</text>
    <text x="300" y="800" font-family="monospace" font-size="11" fill="#3b82f6" opacity="0.5">resource</text>
    <text x="1100" y="750" font-family="monospace" font-size="9" fill="#10b981" opacity="0.7">provider</text>
  </g>
  
  <!-- Main Editor Interface -->
  <rect x="100" y="80" width="1200" height="740" fill="url(#cardGradient)" rx="24" filter="url(#bigShadow)"/>
  
  <!-- Title Bar -->
  <rect x="100" y="80" width="1200" height="60" fill="#f8fafc" rx="24 24 0 0"/>
  <g transform="translate(120, 105)">
    <circle cx="0" cy="0" r="6" fill="#ef4444"/>
    <circle cx="20" cy="0" r="6" fill="#f59e0b"/>
    <circle cx="40" cy="0" r="6" fill="#10b981"/>
  </g>
  <text x="700" y="115" font-family="Arial, sans-serif" font-size="18" font-weight="bold" fill="#1e293b" text-anchor="middle">InfraUX Code Generator</text>
  
  <!-- Tab Bar -->
  <rect x="120" y="160" width="1160" height="40" fill="#f1f5f9"/>
  <rect x="140" y="170" width="120" height="20" fill="url(#codeGradient)" rx="4"/>
  <text x="200" y="182" font-family="Arial, sans-serif" font-size="12" font-weight="bold" fill="white" text-anchor="middle">main.tf</text>
  
  <rect x="280" y="170" width="120" height="20" fill="white" stroke="#e5e7eb" rx="4"/>
  <text x="340" y="182" font-family="Arial, sans-serif" font-size="12" fill="#6b7280" text-anchor="middle">variables.tf</text>
  
  <rect x="420" y="170" width="120" height="20" fill="white" stroke="#e5e7eb" rx="4"/>
  <text x="480" y="182" font-family="Arial, sans-serif" font-size="12" fill="#6b7280" text-anchor="middle">outputs.tf</text>
  
  <!-- Split Pane -->
  <!-- Visual Diagram Side -->
  <rect x="120" y="220" width="560" height="560" fill="white" stroke="#e5e7eb"/>
  <rect x="120" y="220" width="560" height="30" fill="#f8fafc"/>
  <text x="400" y="240" font-family="Arial, sans-serif" font-size="14" font-weight="600" fill="#374151" text-anchor="middle">Visual Architecture</text>
  
  <!-- Mini Architecture -->
  <g transform="translate(200, 280)">
    <!-- VPC -->
    <rect x="0" y="0" width="400" height="250" fill="none" stroke="#3b82f6" stroke-width="2" stroke-dasharray="6,3" rx="8"/>
    <text x="10" y="15" font-family="Arial, sans-serif" font-size="10" font-weight="600" fill="#3b82f6">VPC: main-vpc</text>
    
    <!-- Subnets -->
    <rect x="20" y="30" width="160" height="180" fill="#10b981" opacity="0.1" stroke="#10b981" stroke-width="2" rx="6"/>
    <text x="25" y="45" font-family="Arial, sans-serif" font-size="9" font-weight="600" fill="#10b981">public-subnet</text>
    
    <rect x="200" y="30" width="160" height="180" fill="#8b5cf6" opacity="0.1" stroke="#8b5cf6" stroke-width="2" rx="6"/>
    <text x="205" y="45" font-family="Arial, sans-serif" font-size="9" font-weight="600" fill="#8b5cf6">private-subnet</text>
    
    <!-- EC2 -->
    <rect x="40" y="80" width="60" height="40" fill="#10b981" rx="4"/>
    <text x="70" y="100" font-family="Arial, sans-serif" font-size="8" font-weight="bold" fill="white" text-anchor="middle">web-server</text>
    <text x="70" y="110" font-family="Arial, sans-serif" font-size="7" fill="white" text-anchor="middle">t3.micro</text>
    
    <!-- Database -->
    <rect x="220" y="100" width="120" height="60" fill="#8b5cf6" rx="4"/>
    <text x="280" y="125" font-family="Arial, sans-serif" font-size="8" font-weight="bold" fill="white" text-anchor="middle">postgres-db</text>
    <text x="280" y="140" font-family="Arial, sans-serif" font-size="7" fill="white" text-anchor="middle">db.t3.micro</text>
  </g>
  
  <!-- Arrow pointing to code -->
  <g transform="translate(680, 400)">
    <path d="M0,0 L20,0 L15,-5 M20,0 L15,5" stroke="#6b7280" stroke-width="2" fill="none"/>
    <text x="30" y="5" font-family="Arial, sans-serif" font-size="12" font-weight="600" fill="#6b7280">Auto-Generate</text>
  </g>
  
  <!-- Code Editor Side -->
  <rect x="720" y="220" width="560" height="560" fill="url(#terminalGradient)" stroke="#374151"/>
  <rect x="720" y="220" width="560" height="30" fill="#374151"/>
  <text x="1000" y="240" font-family="Arial, sans-serif" font-size="14" font-weight="600" fill="#10b981" text-anchor="middle">Generated Terraform Code</text>
  
  <!-- Line Numbers -->
  <rect x="720" y="250" width="40" height="530" fill="#2d3748"/>
  <g transform="translate(730, 270)" font-family="Monaco, monospace" font-size="11" fill="#6b7280">
    <text x="0" y="0">1</text>
    <text x="0" y="18">2</text>
    <text x="0" y="36">3</text>
    <text x="0" y="54">4</text>
    <text x="0" y="72">5</text>
    <text x="0" y="90">6</text>
    <text x="0" y="108">7</text>
    <text x="0" y="126">8</text>
    <text x="0" y="144">9</text>
    <text x="0" y="162">10</text>
    <text x="0" y="180">11</text>
    <text x="0" y="198">12</text>
    <text x="0" y="216">13</text>
    <text x="0" y="234">14</text>
    <text x="0" y="252">15</text>
    <text x="0" y="270">16</text>
    <text x="0" y="288">17</text>
    <text x="0" y="306">18</text>
    <text x="0" y="324">19</text>
    <text x="0" y="342">20</text>
    <text x="0" y="360">21</text>
    <text x="0" y="378">22</text>
    <text x="0" y="396">23</text>
    <text x="0" y="414">24</text>
    <text x="0" y="432">25</text>
    <text x="0" y="450">26</text>
    <text x="0" y="468">27</text>
    <text x="0" y="486">28</text>
  </g>
  
  <!-- Code Content -->
  <g transform="translate(770, 270)" font-family="Monaco, monospace" font-size="12">
    <!-- Terraform Provider -->
    <text x="0" y="0" fill="#ff6b6b" font-weight="bold">terraform</text>
    <text x="70" y="0" fill="#ffffff">{</text>
    
    <text x="20" y="18" fill="#4ecdc4">required_providers</text>
    <text x="140" y="18" fill="#ffffff">= {</text>
    
    <text x="40" y="36" fill="#45b7d1">aws</text>
    <text x="70" y="36" fill="#ffffff">= {</text>
    
    <text x="60" y="54" fill="#4ecdc4">source</text>
    <text x="110" y="54" fill="#ffffff">= </text>
    <text x="130" y="54" fill="#95e1d3">"hashicorp/aws"</text>
    
    <text x="60" y="72" fill="#4ecdc4">version</text>
    <text x="110" y="72" fill="#ffffff">= </text>
    <text x="130" y="72" fill="#95e1d3">"~> 5.0"</text>
    
    <text x="40" y="90" fill="#ffffff">}</text>
    <text x="20" y="108" fill="#ffffff">}</text>
    <text x="0" y="126" fill="#ffffff">}</text>
    
    <!-- Provider Config -->
    <text x="0" y="162" fill="#ff6b6b" font-weight="bold">provider</text>
    <text x="60" y="162" fill="#95e1d3">"aws"</text>
    <text x="105" y="162" fill="#ffffff">{</text>
    
    <text x="20" y="180" fill="#4ecdc4">region</text>
    <text x="70" y="180" fill="#ffffff">= </text>
    <text x="90" y="180" fill="#95e1d3">"us-east-1"</text>
    
    <text x="0" y="198" fill="#ffffff">}</text>
    
    <!-- VPC Resource -->
    <text x="0" y="234" fill="#ff6b6b" font-weight="bold">resource</text>
    <text x="60" y="234" fill="#95e1d3">"aws_vpc"</text>
    <text x="140" y="234" fill="#95e1d3">"main"</text>
    <text x="185" y="234" fill="#ffffff">{</text>
    
    <text x="20" y="252" fill="#4ecdc4">cidr_block</text>
    <text x="95" y="252" fill="#ffffff">= </text>
    <text x="115" y="252" fill="#95e1d3">"10.0.0.0/16"</text>
    
    <text x="20" y="270" fill="#4ecdc4">enable_dns_hostnames</text>
    <text x="150" y="270" fill="#ffffff">= </text>
    <text x="170" y="270" fill="#45b7d1">true</text>
    
    <text x="20" y="288" fill="#4ecdc4">enable_dns_support</text>
    <text x="140" y="288" fill="#ffffff">= </text>
    <text x="160" y="288" fill="#45b7d1">true</text>
    
    <text x="20" y="306" fill="#4ecdc4">tags</text>
    <text x="55" y="306" fill="#ffffff">= {</text>
    
    <text x="40" y="324" fill="#4ecdc4">Name</text>
    <text x="75" y="324" fill="#ffffff">= </text>
    <text x="95" y="324" fill="#95e1d3">"main-vpc"</text>
    
    <text x="20" y="342" fill="#ffffff">}</text>
    <text x="0" y="360" fill="#ffffff">}</text>
    
    <!-- Subnet Resource -->
    <text x="0" y="396" fill="#ff6b6b" font-weight="bold">resource</text>
    <text x="60" y="396" fill="#95e1d3">"aws_subnet"</text>
    <text x="140" y="396" fill="#95e1d3">"public"</text>
    <text x="195" y="396" fill="#ffffff">{</text>
    
    <text x="20" y="414" fill="#4ecdc4">vpc_id</text>
    <text x="70" y="414" fill="#ffffff">= </text>
    <text x="90" y="414" fill="#45b7d1">aws_vpc.main.id</text>
    
    <text x="20" y="432" fill="#4ecdc4">cidr_block</text>
    <text x="95" y="432" fill="#ffffff">= </text>
    <text x="115" y="432" fill="#95e1d3">"10.0.1.0/24"</text>
    
    <text x="20" y="450" fill="#4ecdc4">availability_zone</text>
    <text x="130" y="450" fill="#ffffff">= </text>
    <text x="150" y="450" fill="#95e1d3">"us-east-1a"</text>
    
    <text x="20" y="468" fill="#4ecdc4">map_public_ip_on_launch</text>
    <text x="180" y="468" fill="#ffffff">= </text>
    <text x="200" y="468" fill="#45b7d1">true</text>
    
    <text x="0" y="486" fill="#ffffff">}</text>
  </g>
  
  <!-- Cursor with blinking animation -->
  <rect x="970" y="490" width="2" height="14" fill="#10b981">
    <animate attributeName="opacity" values="1;0;1" dur="1s" repeatCount="indefinite"/>
  </rect>
  
  <!-- Action Buttons -->
  <g transform="translate(120, 800)">
    <rect x="0" y="0" width="140" height="40" fill="url(#codeGradient)" rx="8" filter="url(#glow)"/>
    <text x="70" y="25" font-family="Arial, sans-serif" font-size="14" font-weight="bold" fill="white" text-anchor="middle">Generate All</text>
    
    <rect x="160" y="0" width="120" height="40" fill="#10b981" rx="8" filter="url(#glow)"/>
    <text x="220" y="25" font-family="Arial, sans-serif" font-size="14" font-weight="bold" fill="white" text-anchor="middle">Download</text>
    
    <rect x="300" y="0" width="100" height="40" fill="#3b82f6" rx="8"/>
    <text x="350" y="25" font-family="Arial, sans-serif" font-size="14" font-weight="bold" fill="white" text-anchor="middle">Preview</text>
    
    <rect x="420" y="0" width="100" height="40" fill="white" stroke="#e5e7eb" stroke-width="2" rx="8"/>
    <text x="470" y="25" font-family="Arial, sans-serif" font-size="14" font-weight="600" fill="#374151" text-anchor="middle">Export</text>
  </g>
  
  <!-- Status Bar -->
  <rect x="100" y="800" width="1200" height="20" fill="#374151" rx="0 0 24 24"/>
  <g transform="translate(120, 805)">
    <circle cx="0" cy="5" r="2" fill="#10b981"/>
    <text x="8" y="9" font-family="Monaco, monospace" font-size="10" fill="#10b981">Terraform v1.6.2</text>
    
    <circle cx="150" cy="5" r="2" fill="#3b82f6"/>
    <text x="158" y="9" font-family="Monaco, monospace" font-size="10" fill="#3b82f6">AWS Provider 5.23.1</text>
    
    <circle cx="320" cy="5" r="2" fill="#f59e0b"/>
    <text x="328" y="9" font-family="Monaco, monospace" font-size="10" fill="#f59e0b">5 resources</text>
    
    <text x="1050" y="9" font-family="Monaco, monospace" font-size="10" fill="#9ca3af">Lines: 156 | Ready</text>
  </g>
  
  <!-- Generation Progress Indicator -->
  <g transform="translate(1150, 300)">
    <rect x="0" y="0" width="120" height="80" fill="rgba(0,0,0,0.8)" rx="8"/>
    <text x="60" y="20" font-family="Arial, sans-serif" font-size="12" font-weight="bold" fill="#10b981" text-anchor="middle">Generating...</text>
    <rect x="10" y="30" width="100" height="4" fill="#374151" rx="2"/>
    <rect x="10" y="30" width="75" height="4" fill="url(#greenGlow)" rx="2">
      <animate attributeName="width" values="0;100;0" dur="3s" repeatCount="indefinite"/>
    </rect>
    <text x="60" y="50" font-family="Arial, sans-serif" font-size="10" fill="#9ca3af" text-anchor="middle">Processing diagram...</text>
    <text x="60" y="65" font-family="Arial, sans-serif" font-size="10" fill="#10b981" text-anchor="middle">75% Complete</text>
  </g>
</svg>
