<svg viewBox="0 0 1400 900" xmlns="http://www.w3.org/2000/svg">
  <defs>
    <linearGradient id="bgGradient" x1="0%" y1="0%" x2="100%" y2="100%">
      <stop offset="0%" style="stop-color:#0f172a;stop-opacity:1" />
      <stop offset="50%" style="stop-color:#1e293b;stop-opacity:1" />
      <stop offset="100%" style="stop-color:#334155;stop-opacity:1" />
    </linearGradient>
    <linearGradient id="cardGradient" x1="0%" y1="0%" x2="100%" y2="100%">
      <stop offset="0%" style="stop-color:#ffffff;stop-opacity:1" />
      <stop offset="100%" style="stop-color:#f8fafc;stop-opacity:1" />
    </linearGradient>
    <linearGradient id="designGradient" x1="0%" y1="0%" x2="100%" y2="100%">
      <stop offset="0%" style="stop-color:#3b82f6;stop-opacity:1" />
      <stop offset="50%" style="stop-color:#1d4ed8;stop-opacity:1" />
      <stop offset="100%" style="stop-color:#1e40af;stop-opacity:1" />
    </linearGradient>
    <linearGradient id="componentGradient" x1="0%" y1="0%" x2="100%" y2="100%">
      <stop offset="0%" style="stop-color:#10b981;stop-opacity:1" />
      <stop offset="100%" style="stop-color:#059669;stop-opacity:1" />
    </linearGradient>
    <linearGradient id="glowGradient" x1="0%" y1="0%" x2="100%" y2="100%">
      <stop offset="0%" style="stop-color:#60a5fa;stop-opacity:0.3" />
      <stop offset="100%" style="stop-color:#3b82f6;stop-opacity:0.1" />
    </linearGradient>
    <filter id="glow">
      <feGaussianBlur stdDeviation="4" result="coloredBlur"/>
      <feMerge> 
        <feMergeNode in="coloredBlur"/>
        <feMergeNode in="SourceGraphic"/>
      </feMerge>
    </filter>
    <filter id="shadow">
      <feDropShadow dx="0" dy="8" stdDeviation="12" flood-color="#000000" flood-opacity="0.15"/>
    </filter>
    <filter id="bigShadow">
      <feDropShadow dx="0" dy="12" stdDeviation="24" flood-color="#000000" flood-opacity="0.2"/>
    </filter>
  </defs>
  
  <!-- Background -->
  <rect width="1400" height="900" fill="url(#bgGradient)"/>
  
  <!-- Floating particles -->
  <circle cx="200" cy="150" r="3" fill="#3b82f6" opacity="0.4">
    <animate attributeName="cy" values="150;120;150" dur="4s" repeatCount="indefinite"/>
    <animate attributeName="opacity" values="0.4;0.8;0.4" dur="4s" repeatCount="indefinite"/>
  </circle>
  <circle cx="1200" cy="200" r="2" fill="#10b981" opacity="0.6">
    <animate attributeName="cy" values="200;180;200" dur="3s" repeatCount="indefinite"/>
    <animate attributeName="opacity" values="0.6;1;0.6" dur="3s" repeatCount="indefinite"/>
  </circle>
  <circle cx="300" cy="700" r="4" fill="#8b5cf6" opacity="0.3">
    <animate attributeName="cy" values="700;680;700" dur="5s" repeatCount="indefinite"/>
    <animate attributeName="opacity" values="0.3;0.7;0.3" dur="5s" repeatCount="indefinite"/>
  </circle>
  
  <!-- Main Design Canvas -->
  <rect x="150" y="100" width="1100" height="700" fill="url(#cardGradient)" rx="24" filter="url(#bigShadow)"/>
  
  <!-- Header -->
  <rect x="170" y="120" width="1060" height="60" fill="#f8fafc" rx="12"/>
  <text x="200" y="155" font-family="Arial, sans-serif" font-size="24" font-weight="bold" fill="#1e293b">Visual Infrastructure Designer</text>
  
  <!-- Toolbar -->
  <rect x="170" y="200" width="1060" height="50" fill="#f1f5f9" rx="8"/>
  
  <!-- Tool Icons -->
  <g transform="translate(200, 215)">
    <!-- Cursor Tool -->
    <rect x="0" y="0" width="40" height="20" fill="url(#designGradient)" rx="4" filter="url(#glow)"/>
    <polygon points="8,5 8,15 12,11 15,14 17,12 12,9 16,5" fill="white"/>
    
    <!-- Rectangle Tool -->
    <rect x="50" y="0" width="40" height="20" fill="white" stroke="#e5e7eb" rx="4"/>
    <rect x="60" y="6" width="20" height="8" fill="none" stroke="#6b7280" stroke-width="1"/>
    
    <!-- Cloud Tool -->
    <rect x="100" y="0" width="40" height="20" fill="white" stroke="#e5e7eb" rx="4"/>
    <path d="M110,12 Q108,8 112,8 Q116,6 120,8 Q124,6 128,8 Q130,10 128,12 Q130,14 126,14 L114,14 Q110,14 110,12 Z" fill="#6b7280"/>
    
    <!-- Database Tool -->
    <rect x="150" y="0" width="40" height="20" fill="white" stroke="#e5e7eb" rx="4"/>
    <ellipse cx="170" cy="8" rx="8" ry="3" fill="#6b7280"/>
    <rect x="162" y="8" width="16" height="6" fill="#6b7280"/>
    <ellipse cx="170" cy="14" rx="8" ry="3" fill="#6b7280"/>
  </g>
  
  <!-- Main Canvas Area -->
  <rect x="200" y="270" width="1000" height="500" fill="white" rx="12" stroke="#e5e7eb"/>
  
  <!-- Grid Pattern -->
  <defs>
    <pattern id="grid" width="20" height="20" patternUnits="userSpaceOnUse">
      <path d="M 20 0 L 0 0 0 20" fill="none" stroke="#f1f5f9" stroke-width="1"/>
    </pattern>
  </defs>
  <rect x="200" y="270" width="1000" height="500" fill="url(#grid)"/>
  
  <!-- AWS Cloud Components -->
  <g transform="translate(300, 350)">
    <!-- VPC Container -->
    <rect x="0" y="0" width="800" height="300" fill="none" stroke="url(#designGradient)" stroke-width="4" stroke-dasharray="12,6" rx="16"/>
    <rect x="10" y="-15" width="80" height="30" fill="url(#designGradient)" rx="6"/>
    <text x="50" y="5" font-family="Arial, sans-serif" font-size="14" font-weight="bold" fill="white" text-anchor="middle">VPC</text>
    
    <!-- Public Subnet -->
    <rect x="50" y="40" width="320" height="220" fill="url(#componentGradient)" opacity="0.1" stroke="url(#componentGradient)" stroke-width="3" rx="12"/>
    <rect x="60" y="25" width="120" height="25" fill="url(#componentGradient)" rx="6"/>
    <text x="120" y="42" font-family="Arial, sans-serif" font-size="12" font-weight="bold" fill="white" text-anchor="middle">Public Subnet</text>
    
    <!-- Private Subnet -->
    <rect x="430" y="40" width="320" height="220" fill="#8b5cf6" opacity="0.1" stroke="#8b5cf6" stroke-width="3" rx="12"/>
    <rect x="440" y="25" width="120" height="25" fill="#8b5cf6" rx="6"/>
    <text x="500" y="42" font-family="Arial, sans-serif" font-size="12" font-weight="bold" fill="white" text-anchor="middle">Private Subnet</text>
    
    <!-- Load Balancer -->
    <rect x="120" y="80" width="120" height="60" fill="url(#designGradient)" rx="12" filter="url(#glow)"/>
    <text x="180" y="105" font-family="Arial, sans-serif" font-size="14" font-weight="bold" fill="white" text-anchor="middle">Application</text>
    <text x="180" y="125" font-family="Arial, sans-serif" font-size="14" font-weight="bold" fill="white" text-anchor="middle">Load Balancer</text>
    
    <!-- Web Servers -->
    <rect x="80" y="170" width="80" height="60" fill="url(#componentGradient)" rx="12" filter="url(#glow)"/>
    <text x="120" y="195" font-family="Arial, sans-serif" font-size="12" font-weight="bold" fill="white" text-anchor="middle">Web Server</text>
    <text x="120" y="210" font-family="Arial, sans-serif" font-size="12" font-weight="bold" fill="white" text-anchor="middle">EC2</text>
    
    <rect x="220" y="170" width="80" height="60" fill="url(#componentGradient)" rx="12" filter="url(#glow)"/>
    <text x="260" y="195" font-family="Arial, sans-serif" font-size="12" font-weight="bold" fill="white" text-anchor="middle">Web Server</text>
    <text x="260" y="210" font-family="Arial, sans-serif" font-size="12" font-weight="bold" fill="white" text-anchor="middle">EC2</text>
    
    <!-- Database -->
    <rect x="500" y="120" width="180" height="100" fill="#8b5cf6" rx="12" filter="url(#glow)"/>
    <text x="590" y="155" font-family="Arial, sans-serif" font-size="16" font-weight="bold" fill="white" text-anchor="middle">RDS Database</text>
    <text x="590" y="175" font-family="Arial, sans-serif" font-size="12" fill="white" text-anchor="middle">MySQL 8.0</text>
    <text x="590" y="195" font-family="Arial, sans-serif" font-size="12" fill="white" text-anchor="middle">Multi-AZ</text>
    
    <!-- Cache -->
    <rect x="500" y="240" width="120" height="50" fill="#f59e0b" rx="8" filter="url(#glow)"/>
    <text x="560" y="265" font-family="Arial, sans-serif" font-size="12" font-weight="bold" fill="white" text-anchor="middle">Redis Cache</text>
    <text x="560" y="280" font-family="Arial, sans-serif" font-size="10" fill="white" text-anchor="middle">ElastiCache</text>
  </g>
  
  <!-- Connection Lines with Animation -->
  <g stroke="#6b7280" stroke-width="3" fill="none" opacity="0.8">
    <path d="M480,490 L480,520 L420,520 L420,550" stroke-dasharray="8,4">
      <animate attributeName="stroke-dashoffset" values="0;12" dur="2s" repeatCount="indefinite"/>
    </path>
    <path d="M480,490 L480,520 L560,520 L560,550" stroke-dasharray="8,4">
      <animate attributeName="stroke-dashoffset" values="0;12" dur="2s" repeatCount="indefinite"/>
    </path>
    <path d="M560,550 L560,590 L800,590 L800,520" stroke-dasharray="8,4">
      <animate attributeName="stroke-dashoffset" values="0;12" dur="2s" repeatCount="indefinite"/>
    </path>
  </g>
  
  <!-- Floating Component Palette -->
  <rect x="50" y="300" width="120" height="400" fill="url(#cardGradient)" rx="16" filter="url(#shadow)"/>
  <rect x="50" y="300" width="120" height="40" fill="#f8fafc" rx="16"/>
  <text x="110" y="325" font-family="Arial, sans-serif" font-size="12" font-weight="bold" fill="#1e293b" text-anchor="middle">Components</text>
  
  <!-- Component Items -->
  <g transform="translate(60, 360)">
    <!-- AWS EC2 -->
    <rect x="0" y="0" width="100" height="40" fill="url(#componentGradient)" rx="8" opacity="0.9"/>
    <text x="50" y="25" font-family="Arial, sans-serif" font-size="11" font-weight="bold" fill="white" text-anchor="middle">EC2 Instance</text>
    
    <!-- AWS RDS -->
    <rect x="0" y="50" width="100" height="40" fill="#8b5cf6" rx="8" opacity="0.9"/>
    <text x="50" y="75" font-family="Arial, sans-serif" font-size="11" font-weight="bold" fill="white" text-anchor="middle">RDS Database</text>
    
    <!-- AWS S3 -->
    <rect x="0" y="100" width="100" height="40" fill="#f59e0b" rx="8" opacity="0.9"/>
    <text x="50" y="125" font-family="Arial, sans-serif" font-size="11" font-weight="bold" fill="white" text-anchor="middle">S3 Bucket</text>
    
    <!-- AWS Lambda -->
    <rect x="0" y="150" width="100" height="40" fill="#ef4444" rx="8" opacity="0.9"/>
    <text x="50" y="175" font-family="Arial, sans-serif" font-size="11" font-weight="bold" fill="white" text-anchor="middle">Lambda</text>
    
    <!-- AWS VPC -->
    <rect x="0" y="200" width="100" height="40" fill="url(#designGradient)" rx="8" opacity="0.9"/>
    <text x="50" y="225" font-family="Arial, sans-serif" font-size="11" font-weight="bold" fill="white" text-anchor="middle">VPC</text>
    
    <!-- Load Balancer -->
    <rect x="0" y="250" width="100" height="40" fill="#06b6d4" rx="8" opacity="0.9"/>
    <text x="50" y="275" font-family="Arial, sans-serif" font-size="11" font-weight="bold" fill="white" text-anchor="middle">Load Balancer</text>
  </g>
  
  <!-- Properties Panel -->
  <rect x="1270" y="300" width="120" height="400" fill="url(#cardGradient)" rx="16" filter="url(#shadow)"/>
  <rect x="1270" y="300" width="120" height="40" fill="#f8fafc" rx="16"/>
  <text x="1330" y="325" font-family="Arial, sans-serif" font-size="12" font-weight="bold" fill="#1e293b" text-anchor="middle">Properties</text>
  
  <!-- Property Items -->
  <g transform="translate(1280, 360)">
    <text x="0" y="0" font-family="Arial, sans-serif" font-size="11" font-weight="600" fill="#374151">Instance Type</text>
    <rect x="0" y="8" width="100" height="20" fill="#f9fafb" stroke="#e5e7eb" rx="4"/>
    <text x="5" y="22" font-family="Arial, sans-serif" font-size="10" fill="#6b7280">t3.medium</text>
    
    <text x="0" y="50" font-family="Arial, sans-serif" font-size="11" font-weight="600" fill="#374151">Region</text>
    <rect x="0" y="58" width="100" height="20" fill="#f9fafb" stroke="#e5e7eb" rx="4"/>
    <text x="5" y="72" font-family="Arial, sans-serif" font-size="10" fill="#6b7280">us-east-1</text>
    
    <text x="0" y="100" font-family="Arial, sans-serif" font-size="11" font-weight="600" fill="#374151">OS</text>
    <rect x="0" y="108" width="100" height="20" fill="#f9fafb" stroke="#e5e7eb" rx="4"/>
    <text x="5" y="122" font-family="Arial, sans-serif" font-size="10" fill="#6b7280">Ubuntu 20.04</text>
    
    <text x="0" y="150" font-family="Arial, sans-serif" font-size="11" font-weight="600" fill="#374151">Storage</text>
    <rect x="0" y="158" width="100" height="20" fill="#f9fafb" stroke="#e5e7eb" rx="4"/>
    <text x="5" y="172" font-family="Arial, sans-serif" font-size="10" fill="#6b7280">20 GB gp3</text>
  </g>
  
  <!-- Drag & Drop Indicator -->
  <g transform="translate(200, 280)">
    <circle cx="0" cy="0" r="6" fill="#3b82f6" opacity="0.6">
      <animate attributeName="r" values="6;10;6" dur="2s" repeatCount="indefinite"/>
      <animate attributeName="opacity" values="0.6;0.2;0.6" dur="2s" repeatCount="indefinite"/>
    </circle>
    <text x="20" y="5" font-family="Arial, sans-serif" font-size="12" font-weight="600" fill="#3b82f6">Drag components here to build your architecture</text>
  </g>
  
  <!-- Action Buttons -->
  <g transform="translate(200, 790)">
    <rect x="0" y="0" width="120" height="40" fill="url(#componentGradient)" rx="8" filter="url(#glow)"/>
    <text x="60" y="25" font-family="Arial, sans-serif" font-size="14" font-weight="bold" fill="white" text-anchor="middle">Generate Code</text>
    
    <rect x="140" y="0" width="100" height="40" fill="url(#designGradient)" rx="8" filter="url(#glow)"/>
    <text x="190" y="25" font-family="Arial, sans-serif" font-size="14" font-weight="bold" fill="white" text-anchor="middle">Deploy</text>
    
    <rect x="260" y="0" width="80" height="40" fill="white" stroke="#e5e7eb" stroke-width="2" rx="8"/>
    <text x="300" y="25" font-family="Arial, sans-serif" font-size="14" font-weight="600" fill="#374151" text-anchor="middle">Preview</text>
  </g>
  
  <!-- Status Bar -->
  <rect x="150" y="820" width="1100" height="30" fill="#f8fafc" rx="0 0 24 24"/>
  <g transform="translate(170, 830)">
    <circle cx="0" cy="0" r="3" fill="#10b981"/>
    <text x="10" y="4" font-family="Arial, sans-serif" font-size="11" fill="#10b981">Connected to AWS</text>
    
    <circle cx="180" cy="0" r="3" fill="#3b82f6"/>
    <text x="190" y="4" font-family="Arial, sans-serif" font-size="11" fill="#3b82f6">5 components</text>
    
    <circle cx="300" cy="0" r="3" fill="#8b5cf6"/>
    <text x="310" y="4" font-family="Arial, sans-serif" font-size="11" fill="#8b5cf6">Auto-save enabled</text>
  </g>
</svg>
